<svg xmlns="http://www.w3.org/2000/svg" viewBox="0 0 64 64" width="25px" height="25px">
    <path fill="#868aa8" d="M27 23s.2.1.2.2v.1h.1c1.5 1.2 3 1.8 4.7 1.8 1.7 0 3.3-.7 4.8-1.9 0 0 .1-.1.2-.1 3.1-2.7 5.2-7.8 5.2-12.4 0-1-.1-1.9-.3-2.8v-.2l-.1-.2c-.1-.5-.3-1-.5-1.5l-.1-.2-.1-.2C39.5 2 36.2 0 32 0c-4.8 0-8.6 2.8-9.8 7.3v.1l-.1.3-.3 1.8v1.1c0 4.7 2.2 9.8 5.2 12.4zm30.3 28.4c-.6 0-1.2.1-1.7.4L50 46.7h3.7v-.2c.1-13-6.7-14.6-7.5-14.7-1.7-.3-3.1-.8-4.4-1.5-.5-.3-.8-.5-1.1-.7-.6-.4-1.1-.9-1.6-1.4-.4-.4-.7-.8-1-1.2-.4-.5-.7-1.1-1-1.7l-.1-.2-.2.1c-1.5 1-3.1 1.5-4.8 1.5-1.7 0-3.3-.5-4.8-1.5l-.2-.1-.1.2c-.2.4-.4.7-.6 1-.4.6-.9 1.3-1.4 1.8-.5.5-1 .9-1.6 1.4l-.1.1c-.1 0-.1.1-.2.1-1.4 1-3.2 1.7-5.2 2-.3 0-7.7 1.2-7.6 14.7v.2H14l-5.6 5.1c-.5-.2-1.1-.4-1.7-.4-2.4 0-4.3 1.9-4.3 4.3s1.9 4.3 4.3 4.3C9 60 11 58.1 11 55.7c0-.5-.1-.9-.2-1.4l8.4-7.6.1-.1h11.1v9.1c-1.5.7-2.6 2.2-2.6 3.9 0 2.4 1.9 4.3 4.3 4.3s4.3-1.9 4.3-4.3c0-1.7-1-3.3-2.6-3.9v-9.1h11.1l.1.1 8.3 7.6c-.1.4-.2.9-.2 1.4 0 2.4 1.9 4.3 4.3 4.3s4.3-1.9 4.3-4.3c-.1-2.4-2-4.3-4.4-4.3z"/>
</svg>
